<svg xmlns="http://www.w3.org/2000/svg" xml:space="preserve" width="152" height="152" viewBox="0 0 40.216666 40.216666"><path d="M7.547.023 5.72 3.254H.74c.36 6.86.557 13.693 5.722 20.982l-1.793 1.9 2.223.09c.099.295-1.787 1.592-2.277 2.367-.825 1.305-1.267 2.864.501 4.993 1.768 2.128 4.642 1.178 5.473.059l2.727-3.675c3.515 3.41 6.032 7.988 6.732 10.127l.045-5.589 5.777-3.531.022-2.357c.032-.192 2.541 3.884 3.936 5.146 1.286 1.163 2.84 1.703 5.123-.19 1.818-2.134 1.316-3.924-.044-5.588l-8.972-7.574-6.005-.067c-.758-1.02-2.347-3.916-5.071-4.423.528-.686-.073-2.882 2.512-5.631 1.283-1.028 2.167-.488 2.715-.234l-.028-3.735c1.004-.006 1.996.505 2.705 1.671 1.183 2.796 2.326 5.631 3.633 8.303l-1.812 2.386 5.34.685-.764 1.285 6.413 5.648-1.952-2.306c4.237-6.662 5.456-11.413 5.547-20.742h-4.916L32.4.033l-2.683 3.221h-2.795c-.06-.683-.794-1.839-1.818-2.988l-1.952 1.686c-.666-.573-1.153-1.696-3.26-1.687-2.107.009-2.436.819-3.083 1.598L14.742.275c-1.38 1.359-1.717 2.237-1.924 2.98H10.3Zm12.337 1.84c1.491-.02 2.422 1.084 2.837 2.172a92.546 92.546 0 0 1 2.183-1.753c.624.593.716 1.258 1.006 3.01h4.194c.022 2.069-.438 4.504-.94 6.922 2.569-2.57 2.779-6.674 3.181-9.204l1.29 2.282h3.693c.07 2.374-.024 8.4-4.875 17.437l-2.067-2.282 1.05-1.835-4.978-.62 1.083-1.588c-1.579-3.167-2.678-6.394-4.192-9.393-.566-.886-1.533-1.695-3.274-1.703-1.74-.007-2.19.879-2.943 1.836-1.463 2.89-2.794 6.436-4.134 9.26l1.554 2.117-5.292.529.96 1.587-2.365 2.184C5.007 18.358 2.563 11.939 2.546 5.29h3.837l1.19-2.381c1.02 7.159 2.019 8.05 3.209 9.211-.773-2.266-.957-4.474-1.025-6.83h4.431c-.094-1.073-.07-2.049.827-2.992l2.1 1.769c.52-.973 1.277-2.183 2.769-2.205zm-5.022 19.648 3.613.004-4.233 2.55-.023 2.385-4.378 6.129c-.9 1.26-3.202.998-4.041-.025-.84-1.024-.856-2.748.127-3.593Zm10.57 0 8.703 7.467c.984.843.885 2.585.045 3.609-.84 1.023-2.954 1.356-3.892.124-1.712-2.246-3.006-4.22-4.43-6.261l.026-2.28-4.33-2.655zm-5.452.554 4.634 2.733-.012 5.415-4.595 2.782-4.694-2.667.01-5.525z" style="display:inline;fill:#fff;fill-opacity:1;stroke-width:.962001;stroke-opacity:.493562"/><path d="M17.591 11.494c1.985.283 3.33.257 4.81-.072.115.972-.065 1.395-.143 1.965-.709.849-1.191 1.8-1.282 2.599-.477.456-1.138.542-1.833.066-.317-1.165-.552-1.968-1.397-2.843-.05-.337-.108-.963-.155-1.715zm7.263 4.381c-2.042 1.002-3.304 2.268-4.283 3.754 1.364-1.044 2.551-2.074 4.746-2.993z" style="display:inline;fill:#fff;fill-opacity:1;stroke-width:.962001;stroke-opacity:.493562"/><path d="m20.042 23.69-3.04 1.637 3.04 2.035z" style="fill:#fff;fill-opacity:1;stroke-width:.962001;stroke-opacity:.493562"/></svg>